<svg xmlns="http://www.w3.org/2000/svg" viewBox="0 0 208.65 226.75"><defs><style>.cls-1{fill:#51463a;}</style></defs><g id="Layer_2" data-name="Layer 2"><g id="Header"><path class="cls-1" d="M25.23,214.73c3.19,3,8.43,12,16.39,12H161.39c8,0,13.2-9,16.4-12Z"/><path class="cls-1" d="M198.1,116.63c-3.93-2.85-9.1-4.29-15.36-4.29a57.63,57.63,0,0,0-13.82,1.91c-.09-1.57-.2-3-.31-4.06H31.36c-1.3,13.54-3.31,66.56,40,96.87h57.16a91.11,91.11,0,0,0,15.66-13.83c.87-1,1.71-2,2.5-2.94l3.95.42a77.63,77.63,0,0,0,8.2.45c28,0,40.14-16.35,44.86-26.1C212.12,147.54,209.51,124.91,198.1,116.63Zm-46.62,2.2,7.67.18c0,.17-.1,4.12-.77,10.24l-7.63-.83C151.38,122.65,151.48,118.86,151.48,118.83Zm-16.89,70.52-5.25-5.6c14.06-13.16,17.93-31.75,20.47-48.15l7.58,1.17C154.66,154.44,150.43,174.52,134.59,189.35Zm58.93-29.23c-3.57,7.37-12.83,19.75-34.75,19.75-1.48,0-3-.08-4.6-.19.43-.72.87-1.42,1.29-2.17C165.75,159.37,168.52,140,169,127l0-1.1,1.12-.31a48.26,48.26,0,0,1,12.64-2c3.72,0,6.63.74,8.66,2.24C197.72,130.29,200,146.61,193.52,160.12Z"/><rect class="cls-1" x="38.42" y="22.14" width="9.62" height="30.7" transform="translate(-13.85 41.55) rotate(-45)"/><rect class="cls-1" x="96.5" width="9.62" height="30.7"/><rect class="cls-1" x="147.57" y="37.98" width="30.7" height="9.62" transform="translate(17.46 127.74) rotate(-45)"/><rect class="cls-1" y="93.23" width="30.7" height="9.62"/><rect class="cls-1" x="168.86" y="93.23" width="30.7" height="9.62"/><path class="cls-1" d="M99.78,41.45A53.73,53.73,0,0,0,46.05,95.18a55.51,55.51,0,0,0,.77,7.67h105.9a52.6,52.6,0,0,0,.79-7.67A53.73,53.73,0,0,0,99.78,41.45Z"/></g></g></svg>