<svg xmlns="http://www.w3.org/2000/svg" viewBox="0 0 1234.06 437.08"><defs><style>.cls-1{fill:#51463a;}</style></defs><g id="Layer_2" data-name="Layer 2"><g id="Content"><path class="cls-1" d="M1144.51,95.16c-9.76,0-17.64,5.9-17.64,13.21v.49c.33,7,8.12,12.72,17.64,12.72s17.31-5.67,17.64-12.8v-.41C1162.15,101.06,1154.19,95.16,1144.51,95.16Zm0,2.62c8,0,14.69,4.51,15,10.09-4.11,2.3-8.21.33-12.47-1.72-1.24-.57-2.47-1.15-3.7-1.64-5-2-9.43-.49-13.53,1.64C1131.22,101.39,1137.29,97.78,1144.51,97.78Zm0,21.17c-7.79,0-14.19-4.18-14.93-9.6,4.1-2.38,8.2-4.18,12.8-2.38,1.15.49,2.3,1,3.53,1.56,3,1.48,6.31,3,9.76,3a10.16,10.16,0,0,0,3.45-.58C1157.31,115.59,1151.49,119,1144.51,119Z"/><path class="cls-1" d="M1111.18,372c-.08-.08-.08-.16-.16-.24h0a.08.08,0,0,0-.08-.08c-2.38-2.71-6.07-3.94-10.34-3.53a20.77,20.77,0,0,0-11.65,5.5,21,21,0,0,0-6.65,11c-.9,4.18,0,8,2.38,10.58l.09.09h0c.08.08.08.16.16.16a11.38,11.38,0,0,0,8.37,3.28,11.26,11.26,0,0,0,1.64-.08,20.77,20.77,0,0,0,11.65-5.5,21,21,0,0,0,6.65-11,14.32,14.32,0,0,0,.32-3.12A11.27,11.27,0,0,0,1111.18,372Zm-26.33,13.21a19.34,19.34,0,0,1,16-14.35,6.82,6.82,0,0,1,1.31-.09,10.66,10.66,0,0,1,3.77.66,9.36,9.36,0,0,1,2.63,1.64c-1.48,4.43-5.83,5.74-10.42,7.06-1.31.41-2.63.74-3.86,1.23-5,1.88-7.3,5.91-8.94,10.25A10.27,10.27,0,0,1,1084.85,385.22Zm25.84-3.44a19.37,19.37,0,0,1-16,14.36,10,10,0,0,1-7.38-1.89c1.48-4.51,3.36-8.62,8-10.34,1.15-.41,2.38-.82,3.69-1.15,4.27-1.23,9.11-2.71,11.4-7A11.12,11.12,0,0,1,1110.69,381.78Z"/><path class="cls-1" d="M32.11,232.15a21.53,21.53,0,0,0-10-8.12,21,21,0,0,0-12.8-1.15c-4.1,1.06-7.14,3.44-8.53,6.81a.28.28,0,0,1-.08.16c0,.08-.09.08-.09.17-1.15,3.28-.65,6.89,1.48,10.42a21.65,21.65,0,0,0,10,8.12,22.11,22.11,0,0,0,8.37,1.72,19.22,19.22,0,0,0,4.43-.49c3.94-1,6.89-3.2,8.29-6.32h0c0-.08.08-.16.08-.24s.08-.09.08-.17A11.44,11.44,0,0,0,32.11,232.15ZM10,225.42a14.3,14.3,0,0,1,3.77-.41,20,20,0,0,1,7.39,1.48,18.53,18.53,0,0,1,8.77,7,10.31,10.31,0,0,1,1.73,5.5,8.8,8.8,0,0,1-.41,2.46c-4.68.58-7.72-2.79-10.92-6.32-.9-1-1.8-2-2.79-2.87-3.85-3.69-8.53-4-13.12-3.53A9.43,9.43,0,0,1,10,225.42Zm14.35,21.74a18.3,18.3,0,0,1-11.15-1.06A18.47,18.47,0,0,1,4.38,239a9.75,9.75,0,0,1-1.48-7.47c4.76-.65,9.19-.73,12.72,2.63.9.82,1.72,1.81,2.62,2.79,3,3.28,6.4,7,11.24,7.22A9.66,9.66,0,0,1,24.31,247.16Z"/><circle class="cls-1" cx="1149.57" cy="104.26" r="1.31"/><circle class="cls-1" cx="1142.59" cy="108.53" r="1.31"/><circle class="cls-1" cx="10.37" cy="237.56" r="1.31"/><path class="cls-1" d="M200.37,149.88a21.63,21.63,0,0,0-10-8.12,21,21,0,0,0-12.8-1.15c-4.11,1.06-7.14,3.44-8.54,6.81a.28.28,0,0,1-.08.16c0,.08-.08.08-.08.17-1.15,3.28-.66,6.89,1.48,10.42a21.65,21.65,0,0,0,10,8.12,22.1,22.1,0,0,0,8.36,1.72,19.16,19.16,0,0,0,4.43-.49c3.94-1,6.9-3.2,8.29-6.32h0c0-.08.08-.16.08-.24s.09-.09.09-.17A11.49,11.49,0,0,0,200.37,149.88Zm-22.16-6.73a14.33,14.33,0,0,1,3.78-.41,19.94,19.94,0,0,1,7.38,1.48,18.6,18.6,0,0,1,8.78,7.05,10.3,10.3,0,0,1,1.72,5.5,8.45,8.45,0,0,1-.41,2.46c-4.67.58-7.71-2.79-10.91-6.31-.9-1-1.8-2-2.79-2.88-3.86-3.69-8.53-4-13.13-3.52A9.39,9.39,0,0,1,178.21,143.15Zm14.36,21.74a18.26,18.26,0,0,1-11.16-1.06,18.56,18.56,0,0,1-8.78-7.06,9.68,9.68,0,0,1-1.47-7.46c4.75-.66,9.19-.74,12.71,2.62.91.82,1.73,1.81,2.63,2.79,3,3.28,6.4,7,11.24,7.22A9.64,9.64,0,0,1,192.57,164.89Z"/><circle class="cls-1" cx="178.62" cy="155.29" r="1.31"/><path class="cls-1" d="M153.77,360.53c-9.76,0-17.64,5.9-17.64,13.21v.49c.33,7.06,8.12,12.72,17.64,12.72s17.31-5.66,17.64-12.8v-.41C171.41,366.43,163.45,360.53,153.77,360.53Zm0,2.62c8,0,14.69,4.52,15,10.09-4.11,2.3-8.21.33-12.48-1.72-1.23-.57-2.46-1.15-3.69-1.64-5-2-9.43-.49-13.54,1.64C140.48,366.76,146.55,363.15,153.77,363.15Zm0,21.17c-7.79,0-14.19-4.18-14.93-9.6,4.1-2.38,8.2-4.18,12.8-2.38,1.15.49,2.29,1,3.53,1.56,3,1.48,6.31,3,9.76,3a10.16,10.16,0,0,0,3.45-.58C166.57,381,160.74,384.32,153.77,384.32Z"/><path class="cls-1" d="M201.85,385.14c-.08-.08-.08-.16-.16-.24h0a.09.09,0,0,0-.09-.09c-2.37-2.7-6.07-3.93-10.33-3.52a20.76,20.76,0,0,0-11.65,5.49,21.06,21.06,0,0,0-6.65,11c-.9,4.18,0,8,2.38,10.58l.08.08h0c.08.09.08.17.17.17a12.82,12.82,0,0,0,10,3.2,20.77,20.77,0,0,0,11.65-5.5,21.12,21.12,0,0,0,6.64-11,13.75,13.75,0,0,0,.33-3.12A11.27,11.27,0,0,0,201.85,385.14Zm-26.34,13.21a19.4,19.4,0,0,1,16-14.36,7.83,7.83,0,0,1,1.32-.08,10.7,10.7,0,0,1,3.77.66,9.5,9.5,0,0,1,2.63,1.64c-1.48,4.43-5.83,5.74-10.42,7.05-1.32.41-2.63.74-3.86,1.24-5,1.88-7.3,5.9-8.94,10.25A10.28,10.28,0,0,1,175.51,398.35Zm25.85-3.44a18.35,18.35,0,0,1-5.83,9.6,18.16,18.16,0,0,1-10.17,4.75,10,10,0,0,1-7.39-1.88c1.48-4.52,3.37-8.62,8-10.34,1.15-.41,2.38-.82,3.7-1.15,4.26-1.23,9.1-2.71,11.4-7A11.12,11.12,0,0,1,201.36,394.91Z"/><path class="cls-1" d="M171.66,419a21.71,21.71,0,0,0-10-8.13,21.18,21.18,0,0,0-12.8-1.15c-4.1,1.07-7.14,3.45-8.54,6.81a.28.28,0,0,1-.08.17c0,.08-.08.08-.08.16-1.15,3.28-.66,6.89,1.48,10.42a21.6,21.6,0,0,0,10,8.13,22.31,22.31,0,0,0,8.37,1.72,19.78,19.78,0,0,0,4.43-.49c3.94-1,6.89-3.2,8.28-6.32h0c0-.08.09-.17.09-.25s.08-.08.08-.16A11.49,11.49,0,0,0,171.66,419Zm-22.16-6.73a14.37,14.37,0,0,1,3.78-.41,20.13,20.13,0,0,1,7.38,1.47,18.51,18.51,0,0,1,8.78,7.06,10.27,10.27,0,0,1,1.72,5.5,8.45,8.45,0,0,1-.41,2.46c-4.67.57-7.71-2.79-10.91-6.32-.9-1-1.8-2-2.79-2.87-3.85-3.69-8.53-4-13.13-3.53A9.41,9.41,0,0,1,149.5,412.22ZM163.86,434a18.34,18.34,0,0,1-11.16-1.07,18.55,18.55,0,0,1-8.78-7.05,9.75,9.75,0,0,1-1.47-7.47c4.76-.65,9.19-.74,12.72,2.63.9.82,1.72,1.8,2.62,2.79,3,3.28,6.4,7,11.24,7.22A9.7,9.7,0,0,1,163.86,434Z"/><circle class="cls-1" cx="192.33" cy="399.75" r="1.31"/><circle class="cls-1" cx="185.36" cy="404.01" r="1.31"/><circle class="cls-1" cx="149.91" cy="424.36" r="1.31"/><path class="cls-1" d="M87.77,2C78.86-2,69.26.2,66.28,6.87L66.22,7l-.14.3C63.51,13.89,68.32,22.24,77,26.11S95.14,28,98.34,21.61l.1-.23.07-.15C101.48,14.56,96.62,5.92,87.77,2ZM86.7,4.38c7.35,3.27,11.58,10.1,9.61,15.33-4.68.43-7.63-3-10.69-6.65-.89-1-1.78-2.05-2.7-3-3.77-3.84-8.42-4.29-13-4C73.09,2.27,80.11,1.44,86.7,4.38ZM78.09,23.72C71,20.54,66.83,14.12,68.36,8.87c4.71-.5,9.19-.48,12.66,3,.84.91,1.69,1.83,2.58,2.86,2.17,2.58,4.54,5.34,7.69,6.74a9.92,9.92,0,0,0,3.38.88C91.15,25.85,84.46,26.56,78.09,23.72Z"/><path class="cls-1" d="M1231.68,231.15c-.08-.09-.08-.17-.17-.25h0a.08.08,0,0,0-.08-.08c-2.38-2.71-6.07-3.94-10.34-3.53a20.77,20.77,0,0,0-11.65,5.5,21.08,21.08,0,0,0-6.64,11c-.91,4.19,0,8,2.38,10.59l.08.08h0c.08.08.08.16.16.16a11.35,11.35,0,0,0,8.37,3.28,11.19,11.19,0,0,0,1.64-.08,20.74,20.74,0,0,0,11.65-5.5,21,21,0,0,0,6.65-11,13.7,13.7,0,0,0,.33-3.12A11.26,11.26,0,0,0,1231.68,231.15Zm-26.34,13.21a19.4,19.4,0,0,1,16-14.36,7.65,7.65,0,0,1,1.31-.08,10.72,10.72,0,0,1,3.78.65,9.69,9.69,0,0,1,2.62,1.64c-1.47,4.43-5.82,5.75-10.42,7.06-1.31.41-2.62.74-3.85,1.23-5,1.89-7.31,5.91-9,10.26A10.29,10.29,0,0,1,1205.34,244.36Zm25.85-3.45a19.4,19.4,0,0,1-16,14.36,10,10,0,0,1-7.39-1.89c1.48-4.51,3.37-8.61,8-10.34,1.15-.41,2.38-.82,3.69-1.15,4.27-1.23,9.11-2.7,11.41-7A11.22,11.22,0,0,1,1231.19,240.91Z"/><circle class="cls-1" cx="1222.16" cy="245.75" r="1.31"/><circle class="cls-1" cx="1215.19" cy="250.02" r="1.31"/><path class="cls-1" d="M1031.87,32c-.08-.08-.08-.16-.16-.24h0c0-.08-.09-.08-.09-.08-2.37-2.71-6.07-3.94-10.33-3.53a20.76,20.76,0,0,0-11.65,5.49,21.06,21.06,0,0,0-6.65,11c-.9,4.18,0,8,2.38,10.58l.08.09h0c.08.08.08.16.17.16a12.82,12.82,0,0,0,10,3.2,20.77,20.77,0,0,0,11.65-5.5,21.08,21.08,0,0,0,6.64-11,13.75,13.75,0,0,0,.33-3.12A11.27,11.27,0,0,0,1031.87,32Zm-26.34,13.21a18.35,18.35,0,0,1,5.83-9.6,18.24,18.24,0,0,1,10.17-4.76,7.83,7.83,0,0,1,1.32-.08,10.7,10.7,0,0,1,3.77.66,9.5,9.5,0,0,1,2.63,1.64c-1.48,4.43-5.83,5.74-10.42,7.06-1.32.41-2.63.73-3.86,1.23-5,1.88-7.3,5.9-8.94,10.25A10.28,10.28,0,0,1,1005.53,45.22Zm25.85-3.44a18.35,18.35,0,0,1-5.83,9.6,18.24,18.24,0,0,1-10.17,4.76,10,10,0,0,1-7.39-1.89c1.48-4.51,3.37-8.62,8-10.34,1.15-.41,2.38-.82,3.7-1.15,4.26-1.23,9.1-2.71,11.4-7A11.12,11.12,0,0,1,1031.38,41.78Z"/><circle class="cls-1" cx="1022.35" cy="46.62" r="1.31"/><circle class="cls-1" cx="1015.38" cy="50.88" r="1.31"/><path class="cls-1" d="M1021.86,285.39a21.53,21.53,0,0,0-10-8.12,21,21,0,0,0-12.8-1.15c-4.1,1.07-7.14,3.44-8.53,6.81a.28.28,0,0,1-.08.16c0,.09-.09.09-.09.17-1.14,3.28-.65,6.89,1.48,10.42a21.65,21.65,0,0,0,10,8.12,22.11,22.11,0,0,0,8.37,1.72,19.16,19.16,0,0,0,4.43-.49c3.94-1,6.89-3.2,8.29-6.32h0c0-.08.08-.16.08-.24s.08-.09.08-.17A11.44,11.44,0,0,0,1021.86,285.39Zm-22.15-6.73a14.3,14.3,0,0,1,3.77-.41,20,20,0,0,1,7.39,1.48,18.56,18.56,0,0,1,8.78,7.06,10.33,10.33,0,0,1,1.72,5.49,8.8,8.8,0,0,1-.41,2.46c-4.68.58-7.71-2.79-10.91-6.31-.91-1-1.81-2-2.79-2.88-3.86-3.69-8.54-4-13.13-3.52A9.44,9.44,0,0,1,999.71,278.66Zm14.36,21.75a19.6,19.6,0,0,1-19.94-8.13,9.73,9.73,0,0,1-1.48-7.46c4.76-.66,9.19-.74,12.72,2.62.9.82,1.72,1.81,2.62,2.79,3,3.28,6.4,7,11.25,7.22A9.75,9.75,0,0,1,1014.07,300.41Z"/><circle class="cls-1" cx="1000.12" cy="290.81" r="1.31"/></g></g></svg>