<svg xmlns="http://www.w3.org/2000/svg" viewBox="0 0 72.22 59.38"><defs><style>.cls-1{fill:#51463a;}</style></defs><g id="Layer_2" data-name="Layer 2"><g id="Content"><path class="cls-1" d="M3.21,0A3.24,3.24,0,0,0,0,3.21v53a3.24,3.24,0,0,0,3.21,3.21H59.38a1.56,1.56,0,0,0,1.13-.48L71.74,47.67a1.56,1.56,0,0,0,.48-1.13V3.21A3.24,3.24,0,0,0,69,0Zm0,3.21H69V16.05H3.21Zm14.44,1.6a4.82,4.82,0,1,0,4.82,4.82A4.84,4.84,0,0,0,17.65,4.81Zm36.92,0a4.82,4.82,0,1,0,4.81,4.82A4.85,4.85,0,0,0,54.57,4.81ZM17.65,8a1.61,1.61,0,1,1-1.6,1.61A1.58,1.58,0,0,1,17.65,8ZM54.57,8A1.61,1.61,0,1,1,53,9.63,1.58,1.58,0,0,1,54.57,8ZM3.21,19.26H69V44.94H61a3.24,3.24,0,0,0-3.21,3.21v8H3.21Zm5.62,4V52.16H50.55V39.32H63.39v-16ZM12,26.48h9.63v9.63H12Zm12.84,0h9.63v9.63H24.88Zm12.84,0h9.62v9.63H37.72Zm12.83,0h9.63v9.63H50.55ZM12,39.32h9.63V49H12Zm12.84,0h9.63V49H24.88Zm12.84,0h9.62V49H37.72ZM61,48.15h5.74L61,53.89Z"/></g></g></svg>