<svg xmlns="http://www.w3.org/2000/svg" viewBox="0 0 69.3 69.3"><defs><style>.cls-1{fill:#51463a;}</style></defs><g id="Layer_2" data-name="Layer 2"><g id="Header"><path class="cls-1" d="M34.65,18.33a16.36,16.36,0,1,0,16.4,16.32A16.41,16.41,0,0,0,34.65,18.33ZM45.35,25c-1.08.38-2.15.77-3.31,1.08a16.24,16.24,0,0,0-2.46-4.93A14.56,14.56,0,0,1,45.35,25Zm-9.7,3.92a38.06,38.06,0,0,0,5.08-.53,28.27,28.27,0,0,1,.7,5.39H35.65Zm0-1.92V20.4c1.85.62,3.47,2.85,4.54,6.09C38.65,26.72,37.11,26.87,35.65,27ZM33.73,20.4V27a44.63,44.63,0,0,1-4.55-.46C30.18,23.25,31.8,20.94,33.73,20.4Zm0,8.47v4.86H28a29.12,29.12,0,0,1,.69-5.39A35.61,35.61,0,0,0,33.73,28.87ZM26,33.73H20.25a14.56,14.56,0,0,1,2.46-7.17,26,26,0,0,0,4,1.31A32.81,32.81,0,0,0,26,33.73Zm0,1.92a26,26,0,0,0,.77,5.78,35.42,35.42,0,0,0-4,1.3,14.49,14.49,0,0,1-2.46-7.16H26Zm1.92,0h5.78V40.5a38.23,38.23,0,0,0-5.09.54A31,31,0,0,1,28,35.65Zm5.78,6.7v6.54c-1.85-.61-3.47-2.84-4.55-6.08A44.63,44.63,0,0,1,33.73,42.35Zm1.92,6.54V42.35a44.15,44.15,0,0,1,4.54.46C39.12,46.05,37.5,48.36,35.65,48.89Zm0-8.47V35.57h5.78a28.27,28.27,0,0,1-.7,5.39A39.81,39.81,0,0,0,35.65,40.42Zm7.62-4.77h5.78a14.53,14.53,0,0,1-2.47,7.16,26.68,26.68,0,0,0-4-1.31A34.54,34.54,0,0,0,43.27,35.65Zm0-1.92A26,26,0,0,0,42.5,28a33.56,33.56,0,0,0,4-1.31A14.52,14.52,0,0,1,49,33.8h-5.7ZM29.72,21.1A16.24,16.24,0,0,0,27.26,26,27.76,27.76,0,0,1,24,25,14.56,14.56,0,0,1,29.72,21.1ZM24,44.35c1.07-.38,2.15-.77,3.31-1.08a16.24,16.24,0,0,0,2.46,4.93A14.56,14.56,0,0,1,24,44.35ZM39.58,48.2A16.24,16.24,0,0,0,42,43.27a27.76,27.76,0,0,1,3.31,1.08A14.56,14.56,0,0,1,39.58,48.2Z"/><path class="cls-1" d="M34.65,15.4A7.7,7.7,0,1,0,27,7.7,7.73,7.73,0,0,0,34.65,15.4Zm0-13.48A5.78,5.78,0,1,1,28.87,7.7,5.81,5.81,0,0,1,34.65,1.92Z"/><path class="cls-1" d="M34.65,53.9a7.7,7.7,0,1,0,7.7,7.7A7.72,7.72,0,0,0,34.65,53.9Zm0,13.47a5.78,5.78,0,1,1,5.77-5.77A5.81,5.81,0,0,1,34.65,67.37Z"/><path class="cls-1" d="M53.67,23.33A7.66,7.66,0,1,0,48.2,21.1,8.28,8.28,0,0,0,53.67,23.33ZM49.59,11.47a5.78,5.78,0,1,1,0,8.16A5.76,5.76,0,0,1,49.59,11.47Z"/><path class="cls-1" d="M15.63,46A7.66,7.66,0,1,0,21.1,48.2,8.28,8.28,0,0,0,15.63,46Zm4.08,11.86a5.78,5.78,0,1,1,0-8.17A5.8,5.8,0,0,1,19.71,57.83Z"/><path class="cls-1" d="M61.6,27a7.7,7.7,0,1,0,7.7,7.7A7.72,7.72,0,0,0,61.6,27Zm0,13.47a5.78,5.78,0,1,1,5.77-5.77A5.81,5.81,0,0,1,61.6,40.42Z"/><path class="cls-1" d="M15.4,34.65a7.7,7.7,0,1,0-7.7,7.7A7.72,7.72,0,0,0,15.4,34.65ZM7.7,40.42a5.78,5.78,0,1,1,5.77-5.77A5.81,5.81,0,0,1,7.7,40.42Z"/><path class="cls-1" d="M53.67,46a7.66,7.66,0,1,0,5.47,2.23A8,8,0,0,0,53.67,46Zm4.16,11.86a5.78,5.78,0,1,1,0-8.17A5.8,5.8,0,0,1,57.83,57.83Z"/><path class="cls-1" d="M15.63,23.33a7.66,7.66,0,1,0-5.47-2.23A8,8,0,0,0,15.63,23.33ZM11.47,11.47a5.78,5.78,0,1,1,0,8.16A5.76,5.76,0,0,1,11.47,11.47Z"/><path class="cls-1" d="M34.65,8.16a.49.49,0,0,0,.46-.46V3.85a.46.46,0,0,0-.92,0V7.7A.49.49,0,0,0,34.65,8.16Z"/><path class="cls-1" d="M62.06,34.19V31.57a.46.46,0,0,0-.92,0v3.08a.49.49,0,0,0,.46.46h3.85a.46.46,0,0,0,0-.92Z"/><path class="cls-1" d="M54.21,53.51V50.67a.5.5,0,0,0-.46-.47.51.51,0,0,0-.47.47V53.9c0,.08.08.08.08.15l2.7,2.7a.39.39,0,0,0,.61,0,.55.55,0,0,0,0-.69Z"/><path class="cls-1" d="M15.25,15.94c.07.08.07.08.15.08h.31c.15-.08.23-.16.23-.23V12.55a.49.49,0,0,0-.46-.46.5.5,0,0,0-.47.46v1.93l-1.92-1.93a.58.58,0,0,0-.69,0c-.23.16-.16.46,0,.69Z"/><path class="cls-1" d="M53.51,16h.31c.08,0,.08-.08.16-.08l2.69-2.7a.55.55,0,0,0,0-.69c-.15-.23-.46-.15-.69,0l-1.93,1.93V12.55a.46.46,0,1,0-.92,0v3.23C53.28,15.86,53.44,16,53.51,16Z"/><path class="cls-1" d="M34.65,58.06a.49.49,0,0,0-.46.46v6.93a.46.46,0,0,0,.92,0V58.52A.49.49,0,0,0,34.65,58.06Z"/><path class="cls-1" d="M15.63,50.13a.49.49,0,0,0-.46.46v2.85l-2.62,2.62a.58.58,0,0,0,0,.69.56.56,0,0,0,.31.15.56.56,0,0,0,.31-.15l2.69-2.7c.08-.07.08-.07.08-.15V50.67A.36.36,0,0,0,15.63,50.13Z"/><path class="cls-1" d="M7.7,31.11a.49.49,0,0,0-.46.46v2.62H3.85a.46.46,0,1,0,0,.92H7.7a.49.49,0,0,0,.46-.46V31.57A.49.49,0,0,0,7.7,31.11Z"/></g></g></svg>