<svg height='100px' width='100px'  fill="#51463a" xmlns="http://www.w3.org/2000/svg" xmlns:xlink="http://www.w3.org/1999/xlink" version="1.1" x="0px" y="0px" viewBox="0 0 100 100" enable-background="new 0 0 100 100" xml:space="preserve"><path d="M50,28.8c-11.7,0-21.3,9.5-21.3,21.3S38.3,71.3,50,71.3S71.3,61.7,71.3,50S61.7,28.8,50,28.8z M63.9,37.4  c-1.4,0.5-2.8,1-4.3,1.4c-0.8-2.5-1.9-4.7-3.2-6.4C59.3,33.4,61.8,35.2,63.9,37.4z M51.3,42.5c2.2-0.1,4.4-0.3,6.6-0.7  c0.5,2.1,0.8,4.5,0.9,7h-7.5V42.5z M51.3,40v-8.5c2.4,0.8,4.5,3.7,5.9,7.9C55.2,39.7,53.2,39.9,51.3,40z M48.8,31.5V40  c-2-0.1-4-0.3-5.9-0.6C44.2,35.2,46.3,32.2,48.8,31.5z M48.8,42.5v6.3h-7.5c0.1-2.5,0.4-4.9,0.9-7C44.3,42.2,46.5,42.4,48.8,42.5z   M38.8,48.8h-7.5c0.2-3.4,1.4-6.6,3.2-9.3c1.7,0.7,3.5,1.3,5.2,1.7C39.2,43.5,38.9,46.1,38.8,48.8z M38.8,51.3  c0.1,2.7,0.4,5.2,1,7.5c-1.8,0.5-3.5,1-5.2,1.7c-1.8-2.7-3-5.9-3.2-9.3H38.8z M41.3,51.3h7.5v6.3c-2.2,0.1-4.4,0.3-6.6,0.7  C41.7,56.1,41.4,53.7,41.3,51.3z M48.8,60v8.5c-2.4-0.8-4.5-3.7-5.9-7.9C44.8,60.3,46.8,60.1,48.8,60z M51.3,68.5V60  c2,0.1,4,0.3,5.9,0.6C55.8,64.8,53.7,67.8,51.3,68.5z M51.3,57.5v-6.3h7.5c-0.1,2.5-0.4,4.9-0.9,7C55.7,57.8,53.5,57.6,51.3,57.5z   M61.2,51.3h7.5c-0.2,3.4-1.4,6.6-3.2,9.3c-1.7-0.7-3.5-1.3-5.2-1.7C60.8,56.5,61.1,53.9,61.2,51.3z M61.2,48.8  c-0.1-2.7-0.4-5.2-1-7.5c1.8-0.5,3.5-1,5.2-1.7c1.8,2.7,3,5.9,3.2,9.3H61.2z M43.6,32.4c-1.3,1.7-2.4,3.9-3.2,6.4  c-1.4-0.4-2.9-0.8-4.3-1.4C38.2,35.2,40.7,33.4,43.6,32.4z M36.1,62.6c1.4-0.5,2.8-1,4.3-1.4c0.8,2.5,1.9,4.7,3.2,6.4  C40.7,66.6,38.2,64.8,36.1,62.6z M56.4,67.6c1.3-1.7,2.4-3.9,3.2-6.4c1.4,0.4,2.9,0.8,4.3,1.4C61.8,64.8,59.3,66.6,56.4,67.6z"></path><path d="M50,25c5.5,0,10-4.5,10-10S55.5,5,50,5S40,9.5,40,15S44.5,25,50,25z M50,7.5c4.1,0,7.5,3.4,7.5,7.5s-3.4,7.5-7.5,7.5  s-7.5-3.4-7.5-7.5S45.9,7.5,50,7.5z"></path><path d="M50,75c-5.5,0-10,4.5-10,10s4.5,10,10,10s10-4.5,10-10S55.5,75,50,75z M50,92.5c-4.1,0-7.5-3.4-7.5-7.5s3.4-7.5,7.5-7.5  s7.5,3.4,7.5,7.5S54.1,92.5,50,92.5z"></path><path d="M74.7,35.3c2.7,0,5.2-1,7.1-2.9c3.9-3.9,3.9-10.2,0-14.1c-1.9-1.9-4.4-2.9-7.1-2.9c-2.7,0-5.2,1-7.1,2.9  c-3.9,3.9-3.9,10.2,0,14.1C69.6,34.2,72.1,35.3,74.7,35.3z M69.4,19.9c1.4-1.4,3.3-2.2,5.3-2.2c2,0,3.9,0.8,5.3,2.2  c2.9,2.9,2.9,7.7,0,10.6c-1.4,1.4-3.3,2.2-5.3,2.2c-2,0-3.9-0.8-5.3-2.2C66.5,27.6,66.5,22.9,69.4,19.9z"></path><path d="M25.3,64.7c-2.7,0-5.2,1-7.1,2.9c-3.9,3.9-3.9,10.2,0,14.1c1.9,1.9,4.4,2.9,7.1,2.9c2.7,0,5.2-1,7.1-2.9  c3.9-3.9,3.9-10.2,0-14.1C30.4,65.8,27.9,64.7,25.3,64.7z M30.6,80.1c-1.4,1.4-3.3,2.2-5.3,2.2c-2,0-3.9-0.8-5.3-2.2  c-2.9-2.9-2.9-7.7,0-10.6c1.4-1.4,3.3-2.2,5.3-2.2c2,0,3.9,0.8,5.3,2.2C33.5,72.4,33.5,77.1,30.6,80.1z"></path><path d="M85,40c-5.5,0-10,4.5-10,10s4.5,10,10,10s10-4.5,10-10S90.5,40,85,40z M85,57.5c-4.1,0-7.5-3.4-7.5-7.5s3.4-7.5,7.5-7.5  s7.5,3.4,7.5,7.5S89.1,57.5,85,57.5z"></path><path d="M25,50c0-5.5-4.5-10-10-10S5,44.5,5,50s4.5,10,10,10S25,55.5,25,50z M15,57.5c-4.1,0-7.5-3.4-7.5-7.5s3.4-7.5,7.5-7.5  s7.5,3.4,7.5,7.5S19.1,57.5,15,57.5z"></path><path d="M74.7,64.7c-2.7,0-5.2,1-7.1,2.9c-3.9,3.9-3.9,10.2,0,14.1c1.9,1.9,4.4,2.9,7.1,2.9c2.7,0,5.2-1,7.1-2.9  c3.9-3.9,3.9-10.2,0-14.1C79.9,65.8,77.4,64.7,74.7,64.7z M80.1,80.1c-1.4,1.4-3.3,2.2-5.3,2.2c-2,0-3.9-0.8-5.3-2.2  c-2.9-2.9-2.9-7.7,0-10.6c1.4-1.4,3.3-2.2,5.3-2.2c2,0,3.9,0.8,5.3,2.2C83,72.4,83,77.1,80.1,80.1z"></path><path d="M25.3,35.3c2.7,0,5.2-1,7.1-2.9c3.9-3.9,3.9-10.2,0-14.1c-1.9-1.9-4.4-2.9-7.1-2.9c-2.7,0-5.2,1-7.1,2.9  c-3.9,3.9-3.9,10.2,0,14.1C20.1,34.2,22.6,35.3,25.3,35.3z M19.9,19.9c1.4-1.4,3.3-2.2,5.3-2.2c2,0,3.9,0.8,5.3,2.2  c2.9,2.9,2.9,7.7,0,10.6c-1.4,1.4-3.3,2.2-5.3,2.2c-2,0-3.9-0.8-5.3-2.2C17,27.6,17,22.9,19.9,19.9z"></path><path d="M50,15.6c0.3,0,0.6-0.3,0.6-0.6v-5c0-0.3-0.3-0.6-0.6-0.6s-0.6,0.3-0.6,0.6v5C49.4,15.3,49.7,15.6,50,15.6z"></path><path d="M85.6,49.4V46c0-0.3-0.3-0.6-0.6-0.6s-0.6,0.3-0.6,0.6v4c0,0.3,0.3,0.6,0.6,0.6h5c0.3,0,0.6-0.3,0.6-0.6s-0.3-0.6-0.6-0.6  H85.6z"></path><path d="M75.4,74.5v-3.7c0-0.3-0.3-0.6-0.6-0.6s-0.6,0.3-0.6,0.6v4c0,0.1,0,0.2,0,0.2c0,0.1,0.1,0.1,0.1,0.2l3.5,3.5  c0.1,0.1,0.3,0.2,0.4,0.2s0.3-0.1,0.4-0.2c0.2-0.2,0.2-0.6,0-0.9L75.4,74.5z"></path><path d="M24.8,25.7c0.1,0.1,0.1,0.1,0.2,0.1c0.1,0,0.2,0,0.2,0s0.2,0,0.2,0c0.2-0.1,0.3-0.2,0.3-0.3c0-0.1,0-0.2,0-0.2v-4  c0-0.3-0.3-0.6-0.6-0.6s-0.6,0.3-0.6,0.6v2.5l-2.5-2.5c-0.2-0.2-0.6-0.2-0.9,0s-0.2,0.6,0,0.9L24.8,25.7z"></path><path d="M74.5,25.8c0.1,0,0.2,0,0.2,0s0.2,0,0.2,0c0.1,0,0.1-0.1,0.2-0.1l3.5-3.5c0.2-0.2,0.2-0.6,0-0.9s-0.6-0.2-0.9,0l-2.5,2.5  v-2.5c0-0.3-0.3-0.6-0.6-0.6s-0.6,0.3-0.6,0.6v4c0,0.1,0,0.2,0,0.2C74.2,25.6,74.4,25.8,74.5,25.8z"></path><path d="M50,80.4c-0.3,0-0.6,0.3-0.6,0.6v4v5c0,0.3,0.3,0.6,0.6,0.6s0.6-0.3,0.6-0.6v-5v-4C50.6,80.7,50.3,80.4,50,80.4z"></path><path d="M25.3,70.1c-0.3,0-0.6,0.3-0.6,0.6v3.7l-3.4,3.4c-0.2,0.2-0.2,0.6,0,0.9c0.1,0.1,0.3,0.2,0.4,0.2s0.3-0.1,0.4-0.2l3.5-3.5  c0.1-0.1,0.1-0.1,0.1-0.2c0-0.1,0-0.2,0-0.2v-4C25.9,70.4,25.6,70.1,25.3,70.1z"></path><path d="M15,45.4c-0.3,0-0.6,0.3-0.6,0.6v3.4H10c-0.3,0-0.6,0.3-0.6,0.6s0.3,0.6,0.6,0.6h5c0.3,0,0.6-0.3,0.6-0.6v-4  C15.6,45.7,15.3,45.4,15,45.4z"></path></svg>