<svg xmlns="http://www.w3.org/2000/svg" viewBox="0 0 68.77 68.14"><defs><style>.cls-1{fill:#51463a;}</style></defs><g id="Layer_2" data-name="Layer 2"><g id="Content"><path class="cls-1" d="M67.5,68.14H1.27A1.27,1.27,0,0,1,0,66.87V31.21a1.27,1.27,0,0,1,1.27-1.28H67.5a1.27,1.27,0,0,1,1.27,1.28V66.87A1.27,1.27,0,0,1,67.5,68.14ZM2.55,65.59H66.22V32.48H2.55Z"/><path class="cls-1" d="M66.75,32.48H16.38a1.27,1.27,0,0,1-.68-2.38L53.49,8.28a1.28,1.28,0,0,1,1.74.47h0L67.85,30.57a1.26,1.26,0,0,1,0,1.27A1.27,1.27,0,0,1,66.75,32.48ZM21.13,29.93H64.54L53.68,11.15Z"/><path class="cls-1" d="M16.38,32.48H10.57a1.27,1.27,0,0,1-1.11-.64,1.26,1.26,0,0,1,0-1.27L26.74.64A1.28,1.28,0,0,1,28.49.17l20.2,11.67a1.27,1.27,0,0,1,.48,1.73,1.3,1.3,0,0,1-.48.48L17,32.33A1.31,1.31,0,0,1,16.38,32.48Zm-3.64-2.55h3.31l29.47-17L28.34,3Z"/><path class="cls-1" d="M57.31,63H11.46a1.27,1.27,0,0,1-1.27-1.27A3.82,3.82,0,0,0,6.37,58a1.27,1.27,0,0,1-1.28-1.27V41.39a1.27,1.27,0,0,1,1.28-1.27,3.82,3.82,0,0,0,3.82-3.82A1.27,1.27,0,0,1,11.46,35H57.31a1.27,1.27,0,0,1,1.27,1.27,3.82,3.82,0,0,0,3.82,3.82,1.27,1.27,0,0,1,1.28,1.27V56.68A1.27,1.27,0,0,1,62.4,58a3.82,3.82,0,0,0-3.82,3.82A1.27,1.27,0,0,1,57.31,63ZM12.61,60.5H56.16a6.38,6.38,0,0,1,5-5v-13a6.37,6.37,0,0,1-5-5H12.61a6.37,6.37,0,0,1-5,5v13A6.38,6.38,0,0,1,12.61,60.5Z"/><path class="cls-1" d="M60.85,32.48H26.57a1.27,1.27,0,0,1-.68-2.38L47.2,17.8a1.24,1.24,0,0,1,1-.13,1.27,1.27,0,0,1,.78.6,3.82,3.82,0,0,0,5.21,1.4,1.22,1.22,0,0,1,1-.14,1.32,1.32,0,0,1,.77.6l6,10.44a1.28,1.28,0,0,1-1.07,1.91ZM31.32,29.93H58.65l-4.36-7.54a6.35,6.35,0,0,1-6.77-1.8Z"/><path class="cls-1" d="M16.56,32.48a1.29,1.29,0,0,1-.91-.37,1.27,1.27,0,0,1-.2-1.54L26.13,12.05a1.38,1.38,0,0,1,.78-.6,1.31,1.31,0,0,1,1,.14,3.82,3.82,0,0,0,5.21-1.4,1.21,1.21,0,0,1,.77-.59,1.31,1.31,0,0,1,1,.12l8.84,5.1a1.26,1.26,0,0,1,.48,1.73,1.23,1.23,0,0,1-.48.48L17.19,32.31A1.27,1.27,0,0,1,16.56,32.48Zm11.2-18.16L20,27.67,40.42,15.92l-5.93-3.41a6.38,6.38,0,0,1-6.79,1.81Z"/><path class="cls-1" d="M34.39,58A8.92,8.92,0,1,1,43.3,49,8.91,8.91,0,0,1,34.39,58Zm0-15.28A6.37,6.37,0,1,0,40.75,49,6.37,6.37,0,0,0,34.39,42.67Z"/></g></g></svg>