<svg xmlns="http://www.w3.org/2000/svg" viewBox="0 0 64.97 64.98"><defs><style>.cls-1{fill:#51463a;}.cls-2{fill:#fff;}</style></defs><g id="Layer_2" data-name="Layer 2"><g id="Content"><g id="JfCLRD.tif"><path class="cls-1" d="M65,32.5V5.72A5.36,5.36,0,0,0,59.29,0H5.74A5.36,5.36,0,0,0,0,5.73V59.3A5.35,5.35,0,0,0,5.71,65H59.27a6.91,6.91,0,0,0,1.37-.1A5.38,5.38,0,0,0,65,59.36Z"/><path class="cls-1" d="M65,32.5V59.36a5.38,5.38,0,0,1-4.33,5.52,6.91,6.91,0,0,1-1.37.1H5.71A5.35,5.35,0,0,1,0,59.3V5.73A5.36,5.36,0,0,1,5.74,0H59.29A5.36,5.36,0,0,1,65,5.72ZM51.4,12.15c-4,.13-8-.13-11.95.77-3.25.75-4.8,2.4-5.18,5.73-.29,2.49-.31,5-.44,7.54,0,.28,0,.56,0,.92H28.48v8.11h5.35V56.81h9.51V35.17h8v-8.1H43.22c.09-1.62.13-3.19.29-4.74a1.7,1.7,0,0,1,1.34-1.48,12.51,12.51,0,0,1,2.34-.43c1.4-.1,2.79-.12,4.21-.17Z"/><path class="cls-2" d="M51.4,12.15v8.1c-1.42.05-2.81.07-4.21.17a12.51,12.51,0,0,0-2.34.43,1.7,1.7,0,0,0-1.34,1.48c-.16,1.55-.2,3.12-.29,4.74h8.15v8.1h-8V56.81H33.83V35.22H28.48V27.11h5.35c0-.36,0-.64,0-.92.13-2.52.15-5.05.44-7.54.38-3.33,1.93-5,5.18-5.73C43.36,12,47.35,12.28,51.4,12.15Z"/></g></g></g></svg>