<svg height='100px' width='100px'  fill="#51463a" xmlns="http://www.w3.org/2000/svg" xmlns:xlink="http://www.w3.org/1999/xlink" version="1.1" x="0px" y="0px" viewBox="0 0 100 100" enable-background="new 0 0 100 100" xml:space="preserve"><g><g><path fill="#51463a" d="M66,5h-2H36h-2H5v29v2v28v2v29h29h2h28h2h29V66v-2V36v-2V5H66z M64,7v27H36V7H64z M56.207,64H36V36h28    v20.207L56.207,64z M7,7h27v27H7V7z M7,36h27v28H7V36z M7,93V66h27v27H7z M36,93V66h18.207L43.653,76.554l10.293,10.293L64,76.793    V93H36z M93,93H66V74.793L74.793,66H93V93z M93,64H76.793l8.031-8.031L74.531,45.676L66,54.207V36h27V64z M66,34V7h27v27H66z"></path><rect x="79.641" y="39.941" transform="matrix(0.7071 -0.7071 0.7071 0.7071 -8.9971 72.7184)" fill="#51463a" width="7.278" height="14.556"></rect><polygon fill="#51463a" points="42.623,77.584 41.079,84.274 39.535,90.964 46.226,89.421 52.916,87.877 47.77,82.73   "></polygon></g></g></svg>
