<svg xmlns="http://www.w3.org/2000/svg" viewBox="0 0 64.97 64.92"><defs><style>.cls-1{fill:#51463a;}.cls-2{fill:#fff;}</style></defs><g id="Layer_2" data-name="Layer 2"><g id="Content"><g id="Epf8FT.tif"><path class="cls-1" d="M59.77,64.92H5.13C.7,63.67,0,60.4,0,56.32.12,39.85.05,23.39.05,6.92.05,2.25,2.29,0,6.94,0h50c5.1,0,6,.62,8,5.27,0,0,.07.07.1.1V59.72a11.3,11.3,0,0,1-1.67,3A18.8,18.8,0,0,1,59.77,64.92ZM36,27.12c-.36-3.37-.62-3.6-3.89-3.6-1.64,0-3.28,0-4.92,0-1.86,0-2.47.7-2.47,2.58V55.45c0,1.84.54,2.44,2.37,2.49,2,.06,4,0,5.93,0,2.31,0,2.85-.59,2.86-3,0-5.11-.1-10.22.06-15.32a11.22,11.22,0,0,1,1.32-4.61,4.73,4.73,0,0,1,5.17-2.39,4.73,4.73,0,0,1,4.17,3.85,11.42,11.42,0,0,1,.36,2.85c0,5.39,0,10.79,0,16.19,0,1.54.54,2.27,1.95,2.32,2.5.07,5,0,7.51,0a1.81,1.81,0,0,0,1.95-2c-.15-7.46-.07-14.93-.65-22.36-.38-4.77-2.89-8.74-7.95-9.87S39.87,22.61,36,27.12ZM20.26,40.65c0-4.86,0-9.72,0-14.58,0-1.71-.72-2.49-2.43-2.53-2.07-.06-4.14-.05-6.2,0-1.78,0-2.52.82-2.52,2.62q0,14.56,0,29.15c0,1.87.62,2.56,2.46,2.62,2.07.06,4.14.07,6.2,0s2.49-.69,2.5-2.71ZM14.67,6.92a6.94,6.94,0,0,0-7,7,7.05,7.05,0,1,0,14.1.12A6.91,6.91,0,0,0,14.67,6.92Z"/><path class="cls-2" d="M36,27.12c3.9-4.51,8.83-4.6,13.8-3.49s7.57,5.1,7.95,9.87c.58,7.43.5,14.9.65,22.36a1.81,1.81,0,0,1-1.95,2c-2.5,0-5,.08-7.51,0-1.41,0-1.95-.78-1.95-2.32,0-5.4,0-10.8,0-16.19a11.42,11.42,0,0,0-.36-2.85,4.73,4.73,0,0,0-4.17-3.85,4.73,4.73,0,0,0-5.17,2.39,11.22,11.22,0,0,0-1.32,4.61c-.16,5.1-.06,10.21-.06,15.32,0,2.36-.55,2.93-2.86,3-2,0-4,0-5.93,0-1.83,0-2.37-.65-2.37-2.49V26.11c0-1.88.61-2.53,2.47-2.58,1.64,0,3.28,0,4.92,0C35.35,23.52,35.61,23.75,36,27.12Z"/><path class="cls-2" d="M20.26,40.65V55.22c0,2-.54,2.65-2.5,2.71s-4.13.06-6.2,0c-1.84-.06-2.46-.75-2.46-2.62q0-14.58,0-29.15c0-1.8.74-2.58,2.52-2.62,2.06-.05,4.13-.06,6.2,0,1.71,0,2.43.82,2.43,2.53C20.27,30.93,20.26,35.79,20.26,40.65Z"/><path class="cls-2" d="M14.67,6.92a6.91,6.91,0,0,1,7.06,7.15A7.05,7.05,0,1,1,7.63,14,6.94,6.94,0,0,1,14.67,6.92Z"/></g></g></g></svg>