<svg xmlns="http://www.w3.org/2000/svg" viewBox="0 0 83.36 83.03"><defs><style>.cls-1{fill:#e2c7b0;}.cls-2{fill:#eadad0;}.cls-3{fill:#c1966f;}.cls-4{fill:#dbba9c;}.cls-5{fill:#d1af93;}.cls-6{fill:#b78963;}</style></defs><g id="Layer_2" data-name="Layer 2"><g id="Layer_1-2" data-name="Layer 1"><path class="cls-1" d="M11.74,12.37a42.86,42.86,0,0,0-5.61,7.24l5.08,5.1a35.63,35.63,0,0,1,5-7Z"/><path class="cls-1" d="M21.44,4.91a41.07,41.07,0,0,0-6.78,4.72L19.13,15a35,35,0,0,1,5.21-3.7Z"/><path class="cls-2" d="M37.24,6.9,36.35,0c-.62.08-1.24.18-1.86.29l.89,6.9C36,7.08,36.61,7,37.24,6.9Z"/><path class="cls-1" d="M31.47,8.15l-.9-7a40.85,40.85,0,0,0-5.54,2l2.89,6.32A37.48,37.48,0,0,1,31.47,8.15Z"/><path class="cls-3" d="M55.89,73l-1,7.85A41.84,41.84,0,0,0,81,55.16l-6.11-3.69A34.88,34.88,0,0,1,55.89,73Z"/><path class="cls-4" d="M7.23,45.78c-.05-.44-.08-.88-.12-1.31L0,40.87a42,42,0,0,0,.33,5.79A41.4,41.4,0,0,0,3.14,57.22l9.12,2.56A34.44,34.44,0,0,1,7.23,45.78Z"/><path class="cls-5" d="M18.55,67.22,6.61,63.87A42.05,42.05,0,0,0,17.9,75.56l6.42-4.16A35.5,35.5,0,0,1,18.55,67.22Z"/><path class="cls-5" d="M46.11,75.79A34.51,34.51,0,0,1,30.19,74.1l-7,4.57a41.49,41.49,0,0,0,23.84,4c.74-.1,1.47-.21,2.19-.35L50.12,75A35.07,35.07,0,0,1,46.11,75.79Z"/><path class="cls-4" d="M4.14,23.28A41.58,41.58,0,0,0,.49,35l6.6,3.34A34.59,34.59,0,0,1,9.4,28.56Z"/><path class="cls-6" d="M55.92,2.19l1,8A34.69,34.69,0,0,1,76.11,45.83l6.4,3.86A41.63,41.63,0,0,0,55.92,2.19Z"/></g></g></svg>