<svg xmlns="http://www.w3.org/2000/svg" viewBox="0 0 65.58 65.58"><defs><style>.cls-1{fill:#51463a;}.cls-2{fill:#fff;}</style></defs><g id="Layer_2" data-name="Layer 2"><g id="Content"><g id="iqT01D.tif"><path class="cls-1" d="M58,65.58H7.57A7.57,7.57,0,0,1,0,58V7.57A7.57,7.57,0,0,1,7.57,0H58a7.56,7.56,0,0,1,7.57,7.57V58A7.56,7.56,0,0,1,58,65.58Zm-3.6-51c-.24,0-.49,0-.73,0-3.52,0-7,0-10.55,0a1,1,0,0,0-1.11.76q-4,10.09-8,20.15l-.35.78-.41-.85q-4.55-10-9.07-20.11a1,1,0,0,0-1.07-.73c-3.82,0-7.65,0-11.47,0-.25,0-.49,0-1,0a9.06,9.06,0,0,0,.79,1.67C12.6,17.76,13.85,19.2,15,20.7a2,2,0,0,1,.41,1.17q0,10.15,0,20.32A2,2,0,0,1,15,43.3c-1.23,1.74-2.52,3.43-3.74,5.18a5.22,5.22,0,0,0-.47,1.46H23.86a6,6,0,0,0-.59-1.35c-1.46-1.76-2.94-3.49-4.45-5.21a1.9,1.9,0,0,1-.5-1.38c.07-5.29.1-10.58.15-15.86a4.66,4.66,0,0,1,.09-.61l.4.85Q24.2,37.86,29.43,49.32a1.08,1.08,0,0,0,1.17.7c.58,0,.65-.37.8-.74l9.27-23.36c.1-.27.22-.53.4-.94,0,.27,0,.34,0,.42,0,6.47,0,12.93,0,19.4a1.34,1.34,0,0,1-.39.85c-1.07,1.06-2.21,2.07-3.27,3.14A4.25,4.25,0,0,0,36.88,50H54.41A1.21,1.21,0,0,0,54,48.51c-1.05-.95-2.07-1.92-3.07-2.92a1.44,1.44,0,0,1-.41-.91q-.06-12.51-.06-25a1.53,1.53,0,0,1,.46-1c1-.9,2-1.77,3-2.6A1.24,1.24,0,0,0,54.41,14.59Z"/><path class="cls-2" d="M54.41,14.59A1.24,1.24,0,0,1,54,16.1c-1.05.83-2.06,1.7-3,2.6a1.53,1.53,0,0,0-.46,1q0,12.51.06,25a1.44,1.44,0,0,0,.41.91c1,1,2,2,3.07,2.92A1.21,1.21,0,0,1,54.41,50H36.88a4.25,4.25,0,0,1,.57-1.17c1.06-1.07,2.2-2.08,3.27-3.14a1.34,1.34,0,0,0,.39-.85c0-6.47,0-12.93,0-19.4,0-.08,0-.15,0-.42-.18.41-.3.67-.4.94L31.4,49.28c-.15.37-.22.75-.8.74a1.08,1.08,0,0,1-1.17-.7Q24.21,37.85,19,26.38l-.4-.85a4.66,4.66,0,0,0-.09.61c0,5.28-.08,10.57-.15,15.86a1.9,1.9,0,0,0,.5,1.38c1.51,1.72,3,3.45,4.45,5.21a6,6,0,0,1,.59,1.35H10.79a5.22,5.22,0,0,1,.47-1.46C12.48,46.73,13.77,45,15,43.3a2,2,0,0,0,.38-1.11q.06-10.15,0-20.32A2,2,0,0,0,15,20.7c-1.17-1.5-2.42-2.94-3.58-4.43a9.06,9.06,0,0,1-.79-1.67c.52,0,.76,0,1,0,3.82,0,7.65,0,11.47,0a1,1,0,0,1,1.07.73q4.52,10.06,9.07,20.11l.41.85.35-.78q4-10.06,8-20.15a1,1,0,0,1,1.11-.76c3.51,0,7,0,10.55,0C53.92,14.55,54.17,14.57,54.41,14.59Z"/></g></g></g></svg>