<svg xmlns="http://www.w3.org/2000/svg" viewBox="0 0 69.62 70.07"><defs><style>.cls-1{fill:#51463a;}</style></defs><g id="Layer_2" data-name="Layer 2"><g id="Content"><path class="cls-1" d="M69.42,32.09,51.93.8A1.56,1.56,0,0,0,49.8.2L43.9,3.5a1.57,1.57,0,0,0-.6,2.13L45,8.74l-28.59,16a1.56,1.56,0,0,0-.61,2.13L18.73,32,.8,42a1.56,1.56,0,0,0-.6,2.14l5.18,9.27a1.63,1.63,0,0,0,.94.75,2,2,0,0,0,.42,0A1.49,1.49,0,0,0,7.5,54L25.43,44l2.89,5.17a1.55,1.55,0,0,0,.94.74,1.59,1.59,0,0,0,.43.06,1.47,1.47,0,0,0,.76-.2l6.12-3.42a10.33,10.33,0,0,0,3.54,2.85L29.59,67.74a1.55,1.55,0,0,0,.6,2.12,1.44,1.44,0,0,0,.77.21,1.55,1.55,0,0,0,1.37-.8L43.19,50.16a9.18,9.18,0,0,0,1.48.16,8.94,8.94,0,0,0,1.48-.16L57,69.27a1.53,1.53,0,0,0,1.36.8,1.51,1.51,0,0,0,.77-.21,1.54,1.54,0,0,0,.58-2.12L49.21,49.2a9.93,9.93,0,0,0,5-12.68L59,33.81l1.74,3.12a1.61,1.61,0,0,0,.94.74,1.38,1.38,0,0,0,.43.07,1.51,1.51,0,0,0,.77-.21l5.9-3.3A1.57,1.57,0,0,0,69.42,32.09ZM7.34,50.53,3.7,44l16.39-9.15,3.65,6.54ZM51.79,40.06a7.13,7.13,0,0,1-7.13,7.12,7,7,0,0,1-2.77-.56,7,7,0,0,1-2.51-1.82L51.48,38A6.87,6.87,0,0,1,51.79,40.06ZM36.31,42.93h0l-6,3.36L19.34,26.67,46.56,11.46,52,21.27l5.48,9.8ZM62.75,34,61,30.92h0L48.53,8.57h0l-1.74-3.1L50,3.7l16,28.56Z"/></g></g></svg>