<svg xmlns="http://www.w3.org/2000/svg" viewBox="0 0 67.04 56.69"><defs><style>.cls-1{fill:none;stroke:#51463a;stroke-miterlimit:10;stroke-width:3px;}</style></defs><g id="Layer_2" data-name="Layer 2"><g id="Content"><path class="cls-1" d="M65.5,37.11a7.61,7.61,0,1,0-9.21,7.43,46.78,46.78,0,0,1-7.52,10c-.43.47.43.79,1,.6C54.32,53.74,66.3,43.44,65.5,37.11Z"/><path class="cls-1" d="M46.35,37.11a7.61,7.61,0,1,0-9.22,7.43,47,47,0,0,1-7.51,10c-.44.47.43.79,1,.6C35.16,53.74,47.15,43.44,46.35,37.11Z"/><path class="cls-1" d="M1.54,19.58a7.61,7.61,0,1,0,9.21-7.44,47.41,47.41,0,0,1,7.52-10c.43-.47-.43-.79-1-.61C12.73,3,.74,13.25,1.54,19.58Z"/><path class="cls-1" d="M20.69,19.58a7.61,7.61,0,1,0,9.22-7.44,47,47,0,0,1,7.52-10c.43-.47-.44-.79-1-.61C31.88,3,19.89,13.25,20.69,19.58Z"/></g></g></svg>