<svg xmlns="http://www.w3.org/2000/svg" viewBox="0 0 68 67.98"><defs><style>.cls-1{fill:#fff;}.cls-2{fill:#51463a;}</style></defs><g id="Layer_2" data-name="Layer 2"><g id="Header"><g id="_8x3Dmq.tif" data-name="8x3Dmq.tif"><path class="cls-1" d="M33.94,0C27.81,0,21.67,0,15.54.06,6.06.23.2,6,.1,15.55Q-.09,34,.1,52.36C.2,62,6.16,67.82,15.8,67.9q18.11.16,36.22,0C62,67.82,67.85,62,67.94,52q.15-18.26,0-36.51C67.83,6.18,62,.29,52.64.07,46.41-.07,40.18,0,33.94,0Z"/><path class="cls-2" d="M33.94,0c6.24,0,12.47-.11,18.7,0C62,.29,67.83,6.18,67.91,15.44q.15,18.26,0,36.51C67.85,62,62,67.82,52,67.9q-18.1.15-36.22,0C6.16,67.82.2,62,.1,52.36Q-.11,34,.1,15.55C.2,6,6.06.23,15.54.06,21.67,0,27.81,0,33.94,0ZM33.3,25.59c-9-.07-15.49-4.94-21.71-10.59-2.74,5.31-.93,9.61,2.94,14l-4.09-1c-.06,5.24,3.1,8.12,7.55,10.58L14.06,39c1.9,4.1,5,6.22,9.3,7.17-4.25,3.71-9.2,4.24-14.53,4.61,5.28,3.86,10.92,3.81,16.7,4.14,16.53.93,28.58-13.7,29.31-26.82.17-2.95.52-5.62,3.33-7.34.65-.4,1-1.27,1.8-2.35l-4.71.89,3.64-5c-5.14,1.67-5.13,1.65-9.83-.36a8.92,8.92,0,0,0-2.87-.68C38.43,12.63,33.88,16.89,33.3,25.59Z"/><path class="cls-1" d="M33.3,25.59c.58-8.7,5.13-13,12.9-12.36a8.92,8.92,0,0,1,2.87.68c4.7,2,4.69,2,9.83.36l-3.64,5L60,18.37c-.8,1.08-1.15,1.95-1.8,2.35-2.81,1.72-3.16,4.39-3.33,7.34-.73,13.12-12.78,27.75-29.31,26.82-5.78-.33-11.42-.28-16.7-4.14,5.33-.37,10.28-.9,14.53-4.61-4.32-1-7.4-3.07-9.3-7.17L18,38.61c-4.45-2.46-7.61-5.34-7.55-10.58l4.09,1c-3.87-4.39-5.68-8.69-2.94-14C17.81,20.65,24.29,25.52,33.3,25.59Z"/></g></g></g></svg>