<svg xmlns="http://www.w3.org/2000/svg" viewBox="0 0 73.63 60.94"><defs><style>.cls-1{fill:#51463a;}</style></defs><g id="Layer_2" data-name="Layer 2"><g id="Content"><path class="cls-1" d="M15.23,22.85h8.5a13.17,13.17,0,0,1-2,3.72,14.67,14.67,0,0,1-1.62-1.89A1.27,1.27,0,0,0,18,26.1a17.91,17.91,0,0,0,2,2.3,11.69,11.69,0,0,1-3.84,2.13A1.27,1.27,0,0,0,16.9,33a14.3,14.3,0,0,0,4.94-2.82,23.22,23.22,0,0,0,4.25,2.75,1.28,1.28,0,0,0,1.71-.57,1.27,1.27,0,0,0-.57-1.7,20.5,20.5,0,0,1-3.62-2.33,15.91,15.91,0,0,0,2.78-5.43h1.54a1.27,1.27,0,0,0,0-2.54H22.85V19a1.27,1.27,0,0,0-2.54,0v1.27H15.23a1.27,1.27,0,1,0,0,2.54Z"/><path class="cls-1" d="M46.41,32.88a1.27,1.27,0,0,0,1.7-.57h0l5.21-10.43,2.39,4.78H53.32a1.27,1.27,0,0,0,0,2.54H57l1.55,3.11a1.28,1.28,0,0,0,1.71.56,1.26,1.26,0,0,0,.56-1.7L54.46,18.48A1.32,1.32,0,0,0,52.64,18a1.35,1.35,0,0,0-.46.46L45.84,31.17a1.27,1.27,0,0,0,.56,1.71Z"/><path class="cls-1" d="M72.36,5.08H68.55V1.27A1.26,1.26,0,0,0,67.29,0H48.24A20,20,0,0,0,36.82,3.54,20.13,20.13,0,0,0,25.39,0h-19A1.27,1.27,0,0,0,5.08,1.27V5.08H1.27A1.27,1.27,0,0,0,0,6.35V54.59a1.27,1.27,0,0,0,1.27,1.27H27.93V58.4a2.54,2.54,0,0,0,2.54,2.54H43.16A2.54,2.54,0,0,0,45.7,58.4V55.86H72.36a1.27,1.27,0,0,0,1.27-1.27V6.35A1.27,1.27,0,0,0,72.36,5.08ZM42.63,3.45a17.53,17.53,0,0,1,5.61-.91H66v45.7H48.24c-.48,0-1,0-1.45.06l-.46,0c-.33,0-.65.06-1,.11s-.36.06-.54.09L44,48.7l-.56.13-.83.22-.55.17-.82.29-.52.19c-.3.12-.58.25-.87.38l-.44.2c-.38.19-.76.39-1.14.61L38.1,51h0V5.73A17.42,17.42,0,0,1,42.63,3.45Zm-35-.91H25.39A17.61,17.61,0,0,1,35.55,5.73V51h0l-.12-.06c-.38-.22-.76-.42-1.15-.61-.14-.07-.29-.12-.44-.2L33,49.7l-.52-.19-.82-.29-.56-.17-.82-.22-.57-.13-.86-.16-.55-.09c-.32-.05-.63-.08-1-.11l-.47,0q-.7-.06-1.44-.06H7.62ZM71.09,53.32H45.7a2.54,2.54,0,0,0-2.54,2.54V58.4H30.47V55.86a2.54,2.54,0,0,0-2.54-2.54H2.54V7.62H5.08V49.51a1.27,1.27,0,0,0,1.27,1.27h19a17.6,17.6,0,0,1,10.66,3.56.2.2,0,0,1,.08,0l.12.08h.06l.11.06.12,0a.92.92,0,0,0,.57,0l.1,0a.6.6,0,0,0,.11-.06h.06a.5.5,0,0,0,.12-.08l.08,0a17.6,17.6,0,0,1,10.66-3.56H67.29a1.26,1.26,0,0,0,1.26-1.27V7.62h2.54Z"/></g></g></svg>