<svg xmlns="http://www.w3.org/2000/svg" viewBox="0 0 76.41 76.41"><defs><style>.cls-1{fill:#51463a;}</style></defs><g id="Layer_2" data-name="Layer 2"><g id="Header"><path class="cls-1" d="M70,34.39H66.17a15.05,15.05,0,0,0-.41-2.4A15.26,15.26,0,0,0,46.07,9.57,15.9,15.9,0,0,0,19.12,20.38H13.37a13.37,13.37,0,0,0,0,26.74H70a6.37,6.37,0,1,0,0-12.73ZM47.8,11.54A12.73,12.73,0,0,1,64.69,29l-.33-.61c-.08-.15-.16-.3-.25-.44s-.26-.43-.4-.64-.15-.23-.24-.35-.31-.44-.48-.66l-.05-.06A15,15,0,0,0,60.79,24l0,0a15.65,15.65,0,0,0-3.51-2.22l-.08,0c-.3-.14-.62-.27-.93-.39l-.07,0a15.08,15.08,0,0,0-1.58-.48l-.5-.13-.6-.11-.76-.11-.48,0c-.44,0-.87-.06-1.31-.06h0v-.06c0-.45-.06-.89-.12-1.33,0-.18-.05-.35-.08-.52s-.1-.56-.16-.84-.09-.4-.14-.59-.14-.5-.21-.74-.22-.67-.35-1-.18-.48-.29-.72-.22-.47-.34-.71-.16-.32-.25-.47-.27-.48-.41-.71-.17-.27-.26-.4l-.49-.72ZM70,44.57H13.37a10.83,10.83,0,0,1,0-21.65h8.28V21A13.35,13.35,0,0,1,45,12.12c.23.26.45.52.66.79a1.33,1.33,0,0,0,.14.19c.2.27.38.54.56.82l.14.24c.16.27.32.55.46.83l.14.29c.13.27.26.55.37.83,0,.12.09.24.13.37s.19.52.27.79.08.32.13.48.12.48.17.73.07.44.1.66.06.38.08.58c0,.43.07.86.07,1.3v1.9h2.54c.4,0,.79,0,1.18.06l.47.06.64.1.61.13.41.1.74.22.08,0a12.8,12.8,0,0,1,3.48,1.85l0,0c.26.2.51.41.76.62h0a12.7,12.7,0,0,1,2,2.25h0l.42.65c.06.1.13.2.18.3s.23.42.34.64.12.24.17.36.2.43.29.66.08.23.13.35.17.48.24.73a12.85,12.85,0,0,1,.54,3.59v1.27H70a3.82,3.82,0,0,1,0,7.64Z"/><rect class="cls-1" x="52.21" width="2.55" height="5.09"/><rect class="cls-1" x="71.32" y="21.65" width="5.09" height="2.55"/><rect class="cls-1" x="65.43" y="7" width="5.4" height="2.55" transform="translate(14.1 50.6) rotate(-45)"/><path class="cls-1" d="M47.12,56H41.73l2.66-4.43a1.27,1.27,0,0,0-1.09-1.93H35.66a1.25,1.25,0,0,0-1.08.6L28.21,60.45a1.28,1.28,0,0,0,.41,1.76,1.21,1.21,0,0,0,.67.19h5.82L30.64,74.7A1.28,1.28,0,0,0,32.81,76L48.09,58.14a1.28,1.28,0,0,0-1-2.11ZM35.43,69l2.7-7.43a1.27,1.27,0,0,0-.76-1.63,1.31,1.31,0,0,0-.44-.07H31.58l4.78-7.65h4.69l-2.67,4.44a1.27,1.27,0,0,0,1.1,1.93h4.87Z"/><path class="cls-1" d="M16.18,50a1.3,1.3,0,0,0-1.8,0l-2.76,2.77a4.88,4.88,0,0,0,3.44,8.32h.44A4.87,4.87,0,0,0,19,52.81Zm-.68,8.54h-.44a2.32,2.32,0,0,1-2.32-2.33,2.28,2.28,0,0,1,.68-1.64h0l1.86-1.87,1.87,1.87a2.31,2.31,0,0,1,0,3.29A2.28,2.28,0,0,1,15.5,58.58Z"/><path class="cls-1" d="M62,48.77a1.3,1.3,0,0,0-1.8,0l-2.77,2.76a4.88,4.88,0,0,0,3.45,8.33h.44a4.89,4.89,0,0,0,3.45-8.33Zm-.68,8.54h-.44A2.33,2.33,0,0,1,58.58,55a2.36,2.36,0,0,1,.68-1.65h0l1.87-1.86L63,53.33a2.34,2.34,0,0,1,0,3.3A2.36,2.36,0,0,1,61.35,57.31Z"/><path class="cls-1" d="M11.09,64.05a1.3,1.3,0,0,0-1.8,0L6.52,66.82A4.88,4.88,0,0,0,10,75.14h.44a4.87,4.87,0,0,0,3.44-8.32Zm-.68,8.54H10a2.33,2.33,0,0,1-1.65-4h0l1.87-1.87,1.86,1.87a2.33,2.33,0,0,1-1.64,4Z"/><path class="cls-1" d="M56.94,65.32a1.32,1.32,0,0,0-1.81,0l-2.76,2.77a4.88,4.88,0,0,0,3.45,8.32h.43a4.87,4.87,0,0,0,3.45-8.32Zm-.69,8.54h-.43a2.33,2.33,0,0,1-1.65-4h0L56,68l1.87,1.87a2.33,2.33,0,0,1-1.65,4Z"/></g></g></svg>